HIERARCHY
ROOT joint_Root
{
	OFFSET 0.0 0.0 0.0
	CHANNELS 6 Xposition Yposition Zposition Zrotation Xrotation Yrotation 
	JOINT Hips
	{
		OFFSET -0.726466 93.3139 -2.00062
		CHANNELS 6 Xposition Yposition Zposition Zrotation Xrotation Yrotation 
		JOINT Spine
		{
			OFFSET 15.7357 0.0 0.0
			CHANNELS 6 Xposition Yposition Zposition Zrotation Xrotation Yrotation 
			JOINT Chest
			{
				OFFSET 8.98455 -0.406207 0.0
				CHANNELS 6 Xposition Yposition Zposition Zrotation Xrotation Yrotation 
				JOINT Neck
				{
					OFFSET 16.3773 0.0 0.0
					CHANNELS 6 Xposition Yposition Zposition Zrotation Xrotation Yrotation 
					JOINT Head
					{
						OFFSET 6.45672 0.0 0.0
						CHANNELS 6 Xposition Yposition Zposition Zrotation Xrotation Yrotation 
						End Site
						{
							OFFSET 0.0 0.0 0.0
						}
					}
				}
				JOINT Shoulder_L
				{
					OFFSET 12.9942 -0.242716 4.98039
					CHANNELS 6 Xposition Yposition Zposition Zrotation Xrotation Yrotation 
					JOINT UpperArm_L
					{
						OFFSET 5.34809 0.0 0.0
						CHANNELS 6 Xposition Yposition Zposition Zrotation Xrotation Yrotation 
						JOINT LowerArm_L
						{
							OFFSET 24.3286 1.87007e-05 0.0
							CHANNELS 6 Xposition Yposition Zposition Zrotation Xrotation Yrotation 
							JOINT Hand_L
							{
								OFFSET 22.2916 0.0 0.0
								CHANNELS 6 Xposition Yposition Zposition Zrotation Xrotation Yrotation 
								End Site
								{
									OFFSET 0.0 0.0 0.0
								}
							}
						}
					}
				}
				JOINT Shoulder_R
				{
					OFFSET 12.9945 -0.242716 -4.98039
					CHANNELS 6 Xposition Yposition Zposition Zrotation Xrotation Yrotation 
					JOINT UpperArm_R
					{
						OFFSET -5.34813 0.0 0.0
						CHANNELS 6 Xposition Yposition Zposition Zrotation Xrotation Yrotation 
						JOINT LowerArm_R
						{
							OFFSET -24.3289 0.000322201 0.0
							CHANNELS 6 Xposition Yposition Zposition Zrotation Xrotation Yrotation 
							JOINT Hand_R
							{
								OFFSET -22.2915 -0.000108084 0.0
								CHANNELS 6 Xposition Yposition Zposition Zrotation Xrotation Yrotation 
								End Site
								{
									OFFSET 0.0 0.0 0.0
								}
							}
						}
					}
				}
			}
		}
		JOINT UpperLeg_L
		{
			OFFSET -2.19248 -6.46944 0.0
			CHANNELS 6 Xposition Yposition Zposition Zrotation Xrotation Yrotation 
			JOINT LowerLeg_L
			{
				OFFSET 39.0811 0.0 -1.23785e-05
				CHANNELS 6 Xposition Yposition Zposition Zrotation Xrotation Yrotation 
				JOINT Foot_L
				{
					OFFSET 40.9854 0.0 -1.26872e-05
					CHANNELS 6 Xposition Yposition Zposition Zrotation Xrotation Yrotation 
					JOINT Toes_L
					{
						OFFSET 11.7543 0.0 0.0
						CHANNELS 6 Xposition Yposition Zposition Zrotation Xrotation Yrotation 
						End Site
						{
							OFFSET 0.0 0.0 0.0
						}
					}
				}
			}
		}
		JOINT UpperLeg_R
		{
			OFFSET -2.19251 6.46944 0.0
			CHANNELS 6 Xposition Yposition Zposition Zrotation Xrotation Yrotation 
			JOINT LowerLeg_R
			{
				OFFSET -39.0811 -0.00228153 -0.0401928
				CHANNELS 6 Xposition Yposition Zposition Zrotation Xrotation Yrotation 
				JOINT Foot_R
				{
					OFFSET -40.9854 0.0 0.0
					CHANNELS 6 Xposition Yposition Zposition Zrotation Xrotation Yrotation 
					JOINT Toes_R
					{
						OFFSET -11.7543 0.0 0.0
						CHANNELS 6 Xposition Yposition Zposition Zrotation Xrotation Yrotation 
						End Site
						{
							OFFSET 0.0 0.0 0.0
						}
					}
				}
			}
		}
	}
}
MOTION
Frames:	4
Frame Time:	0.0333333
0.000000 0.000000 0.000000 0.000000 0.000000 -0.000000 -0.852631 92.850800 0.115964 89.153700 -1.392190 1.976490 15.735700 0.000005 -0.000001 92.871400 86.705600 -92.725900 8.984550 -0.406207 -0.000000 -1.185980 0.318627 0.294262 16.377300 -0.000001 -0.000001 3.580730 -2.210670 2.773810 6.456720 -0.000001 -0.000000 8.689520 -1.535970 -4.080280 12.994200 -0.242716 4.980390 -90.768700 2.412690 -72.322200 5.348090 -0.000007 -0.000001 -69.191900 37.468200 -11.251600 24.328600 0.000019 0.000005 4.259550 10.015300 -23.182700 22.291600 -0.000001 0.000005 2.186550 5.472200 -5.453410 12.994500 -0.242716 -4.980390 87.562200 7.773700 -72.528900 -5.348130 -0.000001 -0.000004 -64.460500 41.545100 -10.713400 -24.328900 0.000322 -0.000009 3.303060 9.121770 -20.009700 -22.291500 -0.000108 -0.000004 6.417500 5.358840 -1.644310 -2.192480 -6.469440 -0.000000 -176.875000 -6.701300 -1.499700 39.081100 -0.000007 -0.000012 -0.058660 0.190616 17.105000 40.985400 -0.000006 -0.000013 -0.191997 4.143950 -63.857800 11.754300 -0.000000 0.000003 -0.000002 -0.000029 -16.578600 -2.192510 6.469440 -0.000001 179.408000 9.682070 -179.700000 -39.081100 -0.002282 -0.040193 -0.053726 0.217845 14.676900 -40.985400 0.000008 0.000006 1.211510 6.205240 -63.344200 -11.754300 -0.000006 -0.000006 -0.006127 -0.071983 -19.502800
0.000000 0.000000 0.000000 0.000000 0.000000 -0.000000 -0.872257 92.851000 0.112239 89.144200 -1.466820 1.991040 15.735700 0.000005 -0.000001 93.646000 86.702700 -93.466400 8.984550 -0.406207 -0.000000 -1.185400 0.405254 0.363281 16.377300 -0.000001 -0.000001 3.667770 -2.110680 2.794380 6.456720 -0.000001 -0.000000 8.502810 -1.444800 -4.241900 12.994200 -0.242716 4.980390 -90.876900 2.705710 -72.035600 5.348090 -0.000007 -0.000001 -68.322200 35.516400 -11.550500 24.328600 0.000019 0.000005 5.447690 11.616200 -25.342800 22.291600 -0.000001 0.000005 1.341440 5.474520 -5.540310 12.994500 -0.242716 -4.980390 87.581600 7.682450 -72.467000 -5.348130 -0.000001 -0.000004 -64.526300 41.412300 -10.815100 -24.328900 0.000322 -0.000009 3.317730 9.142860 -20.049300 -22.291500 -0.000108 -0.000004 6.435460 5.357290 -1.597150 -2.192480 -6.469440 -0.000000 -176.843000 -6.740840 -1.467160 39.081100 -0.000007 -0.000012 -0.059741 0.194247 17.095300 40.985400 -0.000006 -0.000013 -0.213245 4.130760 -63.860400 11.754300 -0.000000 0.000003 -0.000003 -0.000046 -16.579300 -2.192510 6.469440 -0.000001 179.427000 9.664480 -179.686000 -39.081100 -0.002282 -0.040193 -0.052827 0.214518 14.670100 -40.985400 0.000008 0.000006 1.235650 6.265120 -63.340400 -11.754300 -0.000006 -0.000006 -0.006023 -0.071048 -19.464700
0.000000 0.000000 0.000000 0.000000 0.000000 -0.000000 -0.940115 92.855000 0.065296 89.119400 -1.464290 1.925340 15.735700 0.000005 -0.000001 94.544500 86.716500 -94.317300 8.984550 -0.406207 -0.000000 -1.220620 0.502402 0.459588 16.377300 -0.000001 -0.000001 3.758290 -1.930870 2.856180 6.456720 -0.000001 -0.000000 8.219810 -1.347780 -4.329280 12.994200 -0.242716 4.980390 -91.032700 3.103750 -71.586500 5.348090 -0.000007 -0.000001 -66.451500 32.675700 -12.537900 24.328600 0.000019 0.000005 5.565390 10.160400 -28.919600 22.291600 -0.000001 0.000005 2.052210 5.480770 -5.777920 12.994500 -0.242716 -4.980390 87.612200 7.587220 -72.472800 -5.348130 -0.000001 -0.000004 -64.626200 41.153500 -10.834000 -24.328900 0.000322 -0.000009 3.290450 9.016920 -20.150700 -22.291500 -0.000108 -0.000004 6.510770 5.356580 -1.575630 -2.192480 -6.469440 -0.000000 -176.781000 -6.808740 -1.581340 39.081100 -0.000007 -0.000012 -0.059814 0.194224 17.117000 40.985400 -0.000006 -0.000013 -0.245040 4.187410 -63.827400 11.754300 -0.000000 0.000003 -0.000002 -0.000037 -16.578900 -2.192510 6.469440 -0.000001 179.526000 9.687990 -179.780000 -39.081100 -0.002282 -0.040193 -0.052728 0.214404 14.652900 -40.985400 0.000008 0.000006 1.280180 6.194140 -63.302000 -11.754300 -0.000006 -0.000006 -0.005814 -0.069134 -19.386600
0.000000 0.000000 0.000000 0.000000 0.000000 -0.000000 -1.017410 92.860300 0.023247 89.143100 -1.345740 1.960030 15.735700 0.000005 -0.000001 95.792000 86.693900 -95.556400 8.984550 -0.406207 -0.000000 -1.188830 0.648754 0.477628 16.377300 -0.000001 -0.000001 3.999730 -1.862320 2.895720 6.456720 -0.000001 -0.000000 7.627560 -1.467310 -3.979760 12.994200 -0.242716 4.980390 -91.127100 3.294890 -71.103400 5.348090 -0.000007 -0.000001 -64.256200 28.416300 -14.204800 24.328600 0.000019 0.000005 5.216900 7.759210 -34.075500 22.291600 -0.000001 0.000005 3.572740 5.488250 -6.064160 12.994500 -0.242716 -4.980390 87.620800 7.566200 -72.487300 -5.348130 -0.000001 -0.000004 -64.647700 41.079600 -10.797400 -24.328900 0.000322 -0.000009 3.283000 8.906400 -20.335900 -22.291500 -0.000108 -0.000004 6.454010 5.354570 -1.514920 -2.192480 -6.469440 -0.000000 -176.755000 -6.659200 -1.557850 39.081100 -0.000007 -0.000012 -0.058706 0.191314 17.058900 40.985400 -0.000006 -0.000013 -0.300758 4.200700 -63.760100 11.754300 -0.000000 0.000003 -0.000003 -0.000041 -16.579100 -2.192510 6.469440 -0.000001 179.549000 9.803960 -179.759000 -39.081100 -0.002282 -0.040193 -0.053456 0.217253 14.648700 -40.985400 0.000008 0.000006 1.331720 6.171000 -63.292000 -11.754300 -0.000006 -0.000006 -0.006178 -0.072445 -19.521600
